<svg xmlns="http://www.w3.org/2000/svg" width="14" height="10.518" viewBox="0 0 14 10.518">
  <g id="Сгруппировать_390" data-name="Сгруппировать 390" transform="translate(-0.001 0)">
    <circle id="Эллипс_59" data-name="Эллипс 59" cx="1.263" cy="1.263" r="1.263" transform="translate(4.17 7.992)" fill="#707070"/>
    <circle id="Эллипс_60" data-name="Эллипс 60" cx="1.263" cy="1.263" r="1.263" transform="translate(10.999 7.992)" fill="#707070"/>
    <path id="Контур_489" data-name="Контур 489" d="M13.653,1.843,2.828.351.47,0a.4.4,0,0,0-.465.32A.387.387,0,0,0,.345.762L1.553.939C2.464,3.4,3.718,6.8,3.718,6.8a.406.406,0,0,0,.384.257h9.492A.4.4,0,0,0,14,6.676V2.223A.391.391,0,0,0,13.653,1.843Z" transform="translate(0 0)" fill="#707070"/>
  </g>
</svg>
