<svg xmlns="http://www.w3.org/2000/svg" width="38" height="38" viewBox="0 0 38 38">
  <g id="Сгруппировать_238" data-name="Сгруппировать 238" transform="translate(-512 -67)">
    <circle id="Эллипс_13" data-name="Эллипс 13" cx="19" cy="19" r="19" transform="translate(512 67)" fill="#fff"/>
    <path id="Icon_ionic-ios-call" data-name="Icon ionic-ios-call" d="M16.144,13.9a10.08,10.08,0,0,0-2.106-1.409c-.631-.3-.862-.3-1.309.025-.372.269-.612.519-1.04.425A6.206,6.206,0,0,1,9.6,11.393,6.161,6.161,0,0,1,8.053,9.3c-.091-.431.159-.669.425-1.04.322-.447.331-.678.025-1.309A9.881,9.881,0,0,0,7.094,4.848c-.459-.459-.562-.359-.815-.269a4.64,4.64,0,0,0-.747.4,2.252,2.252,0,0,0-.9.947c-.178.384-.384,1.1.665,2.968a16.561,16.561,0,0,0,2.912,3.883h0l0,0,0,0h0A16.625,16.625,0,0,0,12.1,15.692c1.868,1.05,2.584.844,2.968.665a2.214,2.214,0,0,0,.947-.9,4.64,4.64,0,0,0,.4-.747C16.5,14.461,16.607,14.358,16.144,13.9Z" transform="translate(519.51 75.498)"/>
  </g>
</svg>
