<svg xmlns="http://www.w3.org/2000/svg" width="38" height="38"><g data-name="Сгруппировать 238" transform="translate(-512 -67)"><circle data-name="Эллипс 13" cx="19" cy="19" r="19" transform="translate(512 67)" fill="#fff"/><path data-name="Icon ionic-ios-call" d="M535.654 89.398a10.08 10.08 0 00-2.106-1.409c-.631-.3-.862-.3-1.309.025-.372.269-.612.519-1.04.425a6.206 6.206 0 01-2.089-1.548 6.161 6.161 0 01-1.547-2.093c-.091-.431.159-.669.425-1.04.322-.447.331-.678.025-1.309a9.881 9.881 0 00-1.409-2.103c-.459-.459-.562-.359-.815-.269a4.64 4.64 0 00-.747.4 2.252 2.252 0 00-.9.947c-.178.384-.384 1.1.665 2.968a16.561 16.561 0 002.912 3.883 16.625 16.625 0 003.891 2.915c1.868 1.05 2.584.844 2.968.665a2.214 2.214 0 00.947-.9 4.64 4.64 0 00.4-.747c.085-.249.192-.352-.271-.81z"/></g></svg>